<svg width="33" height="33" viewBox="0 0 33 33" fill="none" xmlns="http://www.w3.org/2000/svg">
<circle cx="16.4999" cy="16.5" r="16.5" fill="#FFFBFA"/>
<path d="M16.4999 18.6875C15.9128 18.6875 15.3388 18.5134 14.8506 18.1872C14.3624 17.861 13.9819 17.3973 13.7572 16.8548C13.5325 16.3124 13.4737 15.7155 13.5882 15.1396C13.7028 14.5637 13.9855 14.0347 14.4007 13.6195C14.8159 13.2043 15.3449 12.9216 15.9208 12.807C16.4966 12.6925 17.0936 12.7513 17.636 12.976C18.1785 13.2007 18.6422 13.5812 18.9684 14.0694C19.2946 14.5576 19.4687 15.1316 19.4687 15.7188C19.4677 16.5058 19.1547 17.2604 18.5981 17.8169C18.0416 18.3735 17.287 18.6866 16.4999 18.6875ZM16.4999 13.9375C16.1476 13.9375 15.8033 14.042 15.5103 14.2377C15.2174 14.4334 14.9891 14.7116 14.8543 15.0371C14.7195 15.3626 14.6842 15.7207 14.7529 16.0663C14.8216 16.4118 14.9913 16.7292 15.2404 16.9783C15.4895 17.2274 15.8069 17.397 16.1524 17.4658C16.498 17.5345 16.8561 17.4992 17.1816 17.3644C17.5071 17.2296 17.7853 17.0013 17.981 16.7084C18.1767 16.4154 18.2812 16.071 18.2812 15.7188C18.2807 15.2465 18.0929 14.7937 17.759 14.4597C17.425 14.1258 16.9722 13.938 16.4999 13.9375Z" fill="#4F7942"/>
<path d="M16.4999 25.8125L11.4911 19.9053C11.4215 19.8166 11.3526 19.7273 11.2844 19.6375C10.4293 18.5102 9.9671 17.1337 9.96869 15.7188C9.96869 13.9866 10.6568 12.3253 11.8816 11.1005C13.1065 9.87561 14.7677 9.1875 16.4999 9.1875C18.2321 9.1875 19.8934 9.87561 21.1182 11.1005C22.3431 12.3253 23.0312 13.9866 23.0312 15.7188C23.0326 17.133 22.5706 18.5088 21.716 19.6357L21.7154 19.6375C21.7154 19.6375 21.5373 19.8714 21.5106 19.9029L16.4999 25.8125ZM12.2327 18.922C12.2327 18.922 12.371 19.1049 12.4025 19.1441L16.4999 23.9766L20.6028 19.1376C20.6289 19.1049 20.7678 18.9208 20.7684 18.9202C21.4674 17.9994 21.8451 16.8748 21.8437 15.7188C21.8437 14.3015 21.2807 12.9423 20.2785 11.9401C19.2764 10.938 17.9172 10.375 16.4999 10.375C15.0827 10.375 13.7235 10.938 12.7213 11.9401C11.7192 12.9423 11.1562 14.3015 11.1562 15.7188C11.1547 16.8756 11.5329 18.0009 12.2327 18.922Z" fill="#4F7942"/>
</svg>
