<svg width="33" height="33" viewBox="0 0 33 33" fill="none" xmlns="http://www.w3.org/2000/svg">
<circle cx="16.4999" cy="16.5" r="16.5" fill="#FFFBFA"/>
<path d="M16.4999 9C20.6422 9 23.9999 12.3578 23.9999 16.5C23.9999 20.6423 20.6422 24 16.4999 24C12.3577 24 8.99994 20.6423 8.99994 16.5C8.99994 12.3578 12.3577 9 16.4999 9ZM16.4999 10.5C14.9086 10.5 13.3825 11.1321 12.2573 12.2574C11.1321 13.3826 10.4999 14.9087 10.4999 16.5C10.4999 18.0913 11.1321 19.6174 12.2573 20.7426C13.3825 21.8679 14.9086 22.5 16.4999 22.5C18.0912 22.5 19.6174 21.8679 20.7426 20.7426C21.8678 19.6174 22.4999 18.0913 22.4999 16.5C22.4999 14.9087 21.8678 13.3826 20.7426 12.2574C19.6174 11.1321 18.0912 10.5 16.4999 10.5ZM16.4999 12C16.6836 12 16.8609 12.0675 16.9982 12.1895C17.1355 12.3116 17.2232 12.4798 17.2447 12.6623L17.2499 12.75V16.1895L19.2802 18.2198C19.4147 18.3547 19.4928 18.5358 19.4986 18.7263C19.5044 18.9167 19.4375 19.1023 19.3115 19.2452C19.1855 19.3881 19.0098 19.4777 18.8201 19.4958C18.6304 19.5139 18.4409 19.4591 18.2902 19.3425L18.2197 19.2802L15.9697 17.0302C15.8531 16.9136 15.7783 16.7618 15.7567 16.5982L15.7499 16.5V12.75C15.7499 12.5511 15.829 12.3603 15.9696 12.2197C16.1103 12.079 16.301 12 16.4999 12Z" fill="#4F7942"/>
</svg>
