<svg width="66" height="53" viewBox="0 0 66 53" fill="none" xmlns="http://www.w3.org/2000/svg">
<path d="M64.5662 23.7235C59.5844 25.0389 54.3585 27.5839 50.8411 31.5158C49.2188 30.3148 47.539 29.2139 45.7875 28.1987C46.936 27.4982 48.142 26.8834 49.3623 26.3257C53.8847 24.3098 58.8091 23.2946 63.7479 23.0801C65.2266 23.023 65.241 20.7067 63.7479 20.7782C56.8566 21.0642 49.2044 22.8085 43.4904 26.9262C41.8681 26.0827 40.2027 25.3106 38.5229 24.61C39.8437 23.695 41.4661 22.9229 42.9305 22.3367C48.9173 19.9775 55.4783 19.6916 61.8097 20.3779C63.2885 20.5352 63.2741 18.2332 61.8097 18.0759C55.1912 17.361 48.2712 17.7185 42.026 20.2349C39.9442 21.0785 37.7333 22.1365 36.0105 23.6378C34.1154 22.9372 32.1772 22.3367 30.239 21.8219V13.7866H30.6266C31.0717 13.7866 31.4881 13.5721 31.7321 13.2004C31.9762 12.8287 32.0336 12.3711 31.8757 11.9565L29.5068 5.95144C29.2915 5.42242 28.9038 4.96489 28.4013 4.69324L20.6917 0.375316C19.7872 -0.125105 18.6674 -0.125105 17.7773 0.375316L10.082 4.67894C9.57952 4.9649 9.19188 5.40813 8.97653 5.93714L6.60765 11.9422C6.44972 12.3568 6.49279 12.8144 6.75122 13.1861C6.99528 13.5578 7.41163 13.7723 7.8567 13.7723H8.24433V20.6781C5.61703 20.9784 2.97537 21.4931 0.606488 22.5225C-0.757412 23.1087 0.41985 25.0961 1.76939 24.5099C1.30997 24.7101 2.12831 24.3955 2.3006 24.3384C2.98972 24.1096 3.70757 23.9237 4.41105 23.7521C4.55462 23.7236 4.71255 23.6807 4.85611 23.6521C4.85611 23.6521 4.85611 23.6521 4.87047 23.6664C4.91354 23.695 4.95661 23.7378 5.01404 23.7664C4.65512 23.5234 5.12889 23.8522 5.21504 23.9237C5.68881 24.3241 6.14823 24.7387 6.59329 25.1676C8.0864 26.6403 9.40723 28.2845 10.5558 30.0289C14.8341 36.52 16.7867 44.1836 17.1599 51.8901C17.2317 53.3628 19.5432 53.3771 19.4714 51.8901C19.0837 43.7976 17.0594 35.6908 12.5514 28.8707C11.2162 26.8548 9.66566 24.7959 7.82798 23.1087C8.58889 22.9944 9.36416 22.9086 10.1251 22.8371C10.1394 22.8514 10.1538 22.8514 10.1825 22.8657C13.2836 24.1954 16.0975 26.4258 18.5525 28.6706C25.0562 34.647 29.4925 42.4393 32.0623 50.8321C32.493 52.2476 34.7327 51.6471 34.302 50.2173C31.646 41.5672 27.0949 33.4746 20.4333 27.2551C18.653 25.5966 16.6718 23.9237 14.547 22.5797C15.4945 22.5511 16.4421 22.5511 17.4184 22.5654C22.9027 24.8245 28.387 28.1559 33.2109 31.7446C39.5853 36.5057 45.2276 42.4107 48.7306 49.6025C49.3767 50.9322 51.3723 49.7741 50.7262 48.4444C47.1227 41.0238 41.2794 34.9902 34.7471 30.0432C31.244 27.3838 27.4681 24.9675 23.5344 22.9086C24.0799 22.9515 24.6255 23.0087 25.171 23.0659H25.2141C25.3146 23.0802 25.6879 23.1373 25.774 23.1516C26.3914 23.266 27.0087 23.3947 27.6261 23.5377C29.7222 24.0238 31.8039 24.6243 33.8426 25.3249C40.2601 27.5125 46.4479 30.7152 51.6738 35.0617C55.2917 38.0642 58.3928 41.5957 60.8191 45.6134C61.5944 46.8859 63.59 45.7278 62.8147 44.4553C60.13 40.023 56.6556 36.1912 52.6788 32.9599C52.6931 32.9456 52.6931 32.9313 52.7075 32.9313C53.4684 32.1592 54.2867 31.43 55.1481 30.7723C58.12 28.4847 61.5656 26.9262 65.1836 25.9826C66.6193 25.568 66.0019 23.3375 64.5662 23.7235ZM24.1374 20.6352C21.9838 20.4351 19.859 20.3064 17.8203 20.2635C17.605 20.192 17.404 20.192 17.2461 20.2492C16.8871 20.2492 16.5426 20.2349 16.1837 20.2349C15.5232 20.2349 14.8628 20.2492 14.2168 20.2635V13.5864C14.2168 13.1718 14.5613 12.8287 14.9777 12.8287H23.3908C23.8071 12.8287 24.1517 13.1718 24.1517 13.5864V20.6352H24.1374ZM26.4632 20.9212V13.5864C26.4632 11.8993 25.0849 10.5267 23.3908 10.5267H14.9777C13.2836 10.5267 11.9053 11.8993 11.9053 13.5864V20.3636C11.4603 20.3922 11.0152 20.4208 10.5701 20.4494V12.8001C10.5701 12.0852 9.99586 11.4847 9.27802 11.4561L11.1301 6.76641C11.1444 6.72352 11.1731 6.69492 11.2162 6.68063L18.9258 2.3627C19.1268 2.24832 19.3709 2.24832 19.5719 2.3627L27.2959 6.68063C27.3246 6.69492 27.3533 6.72352 27.3676 6.76641L29.2053 11.4561C28.4875 11.4847 27.9132 12.0709 27.9132 12.8001V21.2214C27.4394 21.1214 26.9513 21.007 26.4632 20.9212Z" fill="url(#paint0_linear_10_100)"/>
<defs>
<linearGradient id="paint0_linear_10_100" x1="33" y1="0" x2="32.6548" y2="39.3611" gradientUnits="userSpaceOnUse">
<stop stop-color="#DBD460"/>
<stop offset="1" stop-color="#78A56F"/>
</linearGradient>
</defs>
</svg>
