<svg width="47" height="59" viewBox="0 0 47 59" fill="none" xmlns="http://www.w3.org/2000/svg">
<path d="M0.728788 21.3705C-0.178812 24.5488 -0.239811 27.9151 0.552027 31.1252C1.34387 34.3353 2.96013 37.2739 5.23551 39.6406C8.64874 43.0666 13.2605 44.9743 18.0568 44.9441C19.4241 44.9283 20.7857 44.7633 22.1183 44.452V57.5952C22.1183 57.9678 22.2639 58.3251 22.523 58.5886C22.7821 58.852 23.1335 59 23.5 59C23.8665 59 24.2179 58.852 24.477 58.5886C24.7361 58.3251 24.8817 57.9678 24.8817 57.5952V44.452C26.2143 44.7633 27.5759 44.9283 28.9432 44.9441C33.7395 44.9743 38.3513 43.0666 41.7645 39.6406C44.0399 37.2739 45.6561 34.3353 46.448 31.1252C47.2398 27.9151 47.1788 24.5488 46.2712 21.3705C46.2072 21.1382 46.0855 20.9265 45.9177 20.7559C45.7499 20.5853 45.5417 20.4615 45.3132 20.3965C40.8697 19.1233 36.1199 19.5681 31.98 21.6452C32.7563 19.6753 33.1607 17.5744 33.172 15.4524C33.1367 12.3252 32.2854 9.26368 30.7051 6.58059C29.1248 3.89751 26.8721 1.6891 24.1774 0.181067C23.9707 0.0623725 23.7374 0 23.5 0C23.2626 0 23.0293 0.0623725 22.8226 0.181067C20.1279 1.6891 17.8752 3.89751 16.2949 6.58059C14.7146 9.26368 13.8633 12.3252 13.828 15.4524C13.8393 17.5738 14.2435 19.674 15.0195 21.6433C10.8797 19.5661 6.1298 19.1219 1.68681 20.3965C1.4583 20.4615 1.25011 20.5853 1.08232 20.7559C0.91452 20.9265 0.792766 21.1382 0.728788 21.3705ZM43.8047 22.9042C44.4524 25.5039 44.4249 28.2301 43.7248 30.8158C43.0246 33.4014 41.6759 35.7578 39.8106 37.6542C37.9454 39.5505 35.6277 40.9218 33.0844 41.6336C30.5412 42.3454 27.8597 42.3734 25.3027 41.7149C25.0762 40.3323 24.9356 38.9366 24.8817 37.536C24.951 33.5639 26.5338 29.7742 29.2967 26.9648C31.1698 25.0805 33.4879 23.7173 36.0285 23.0062C38.5691 22.2951 41.2469 22.26 43.8047 22.9042ZM23.5 3.0399C25.6073 4.32675 27.3511 6.14624 28.5618 8.32136C29.7724 10.4965 30.4087 12.9531 30.4087 15.4524C30.4087 17.9516 29.7724 20.4083 28.5618 22.5834C27.3511 24.7585 25.6073 26.578 23.5 27.8649C21.3927 26.578 19.6489 24.7585 18.4382 22.5834C17.2276 20.4083 16.5913 17.9516 16.5913 15.4524C16.5913 12.9531 17.2276 10.4965 18.4382 8.32136C19.6489 6.14624 21.3927 4.32675 23.5 3.0399ZM3.19533 22.9042C5.75287 22.2548 8.43195 22.2874 10.9735 22.9987C13.515 23.7101 15.833 25.0762 17.7033 26.9648C20.4662 29.7742 22.049 33.5639 22.1183 37.536C22.0644 38.9366 21.9238 40.3323 21.6973 41.7149C19.1402 42.3734 16.4588 42.3454 13.9156 41.6336C11.3723 40.9218 9.0546 39.5505 7.18936 37.6542C5.32413 35.7578 3.97539 33.4014 3.27524 30.8158C2.57509 28.2301 2.54756 25.5039 3.19533 22.9042Z" fill="url(#paint0_linear_10_98)"/>
<defs>
<linearGradient id="paint0_linear_10_98" x1="23.5" y1="0" x2="22.8994" y2="43.8122" gradientUnits="userSpaceOnUse">
<stop stop-color="#DBD460"/>
<stop offset="1" stop-color="#78A56F"/>
</linearGradient>
</defs>
</svg>
