<svg width="33" height="33" viewBox="0 0 33 33" fill="none" xmlns="http://www.w3.org/2000/svg">
<circle cx="16.4999" cy="16.5" r="16.5" fill="#FFFBFA"/>
<path d="M15.1311 9.69112C15.4301 9.77054 15.6625 10.0059 15.7382 10.3059L16.2632 12.3869C16.332 12.6594 16.2619 12.9483 16.0758 13.1589L14.5906 14.8412C14.5906 14.8412 14.4878 16.3609 15.3517 17.8498C16.2156 19.3387 17.5824 19.9975 17.5824 19.9975L19.7796 19.543C20.055 19.486 20.3408 19.5686 20.5432 19.7638L22.0934 21.2581C22.316 21.4727 22.4048 21.791 22.3254 22.0899L21.7708 24.1778C21.4883 25.2411 20.2966 25.7468 19.3795 25.1392C17.4957 23.8913 14.6368 21.7087 13.1418 19.132C11.6468 16.5554 11.1706 12.9902 11.0221 10.7355C10.9498 9.63774 11.9802 8.85409 13.0434 9.13655L15.1311 9.69112Z" stroke="#4F7942" stroke-linejoin="round"/>
</svg>
