<svg width="62" height="44" viewBox="0 0 62 44" fill="none" xmlns="http://www.w3.org/2000/svg">
<path d="M22.1429 15.4H17.7466C19.803 9.4831 21.5589 6.6495 27.4018 4.23038C28.377 3.82646 28.9285 2.79532 28.7208 1.76616C28.5134 0.73898 27.6051 0 26.5497 0H26.5453C14.3559 0.02156 7.35408 4.87696 2.38921 16.7449C0.80445 20.4725 0 24.462 0 28.6C0 34.9637 1.9375 38.4292 4.89136 42.9902C5.2979 43.6196 6.00071 44 6.75313 44H22.1429C25.8059 44 28.7857 41.0395 28.7857 37.4V22C28.7857 18.3605 25.8059 15.4 22.1429 15.4ZM55.3571 15.4H50.9609C53.0173 9.4831 54.7732 6.6495 60.6161 4.23038C61.5912 3.82646 62.1428 2.79532 61.9351 1.76616C61.7276 0.73898 60.8193 0 59.764 0H59.7596C47.5702 0.02156 40.5684 4.87696 35.6035 16.7449C34.0187 20.4725 33.2143 24.462 33.2143 28.6C33.2143 34.9637 35.1518 38.4292 38.1056 42.9902C38.5122 43.6196 39.215 44 39.9674 44H55.3571C59.0202 44 62 41.0395 62 37.4V22C62 18.3605 59.0202 15.4 55.3571 15.4Z" fill="#E3EDE1"/>
</svg>
