<svg width="41" height="41" viewBox="0 0 41 41" fill="none" xmlns="http://www.w3.org/2000/svg">
<path d="M24.2156 2.75469C24.2156 2.37031 23.8953 2.11406 23.575 2.11406H19.7953C19.2828 0.832812 18.0656 0 16.6562 0C14.7344 0 13.2609 1.5375 13.2609 3.39531H23.6391C23.9594 3.39531 24.2156 3.13906 24.2156 2.75469ZM19.2828 6.59844V4.67656H13.9016V6.08594C13.9016 7.49531 15.0547 8.64844 16.4641 8.64844H17.2328C18.3859 8.64844 19.2828 7.75156 19.2828 6.59844ZM30.0453 13.6453C30.1734 13.6453 30.3656 13.7094 30.4937 13.7734L31.3266 14.4781V12.1719H28.8281V14.4781L29.6609 13.7734C29.725 13.7094 29.8531 13.6453 30.0453 13.6453ZM15.5672 9.86562L15.5031 10.8906H17.0406L17.1687 9.99375H16.4C16.1437 9.99375 15.8875 9.92969 15.5672 9.86562ZM27.2266 35.9391C27.2266 35.9391 27.1625 35.9391 27.0984 35.9391H27.0344L25.1125 36.1313C24.9844 36.1313 24.8562 36.1313 24.7281 36.1313C24.4719 36.0672 24.2156 36.0031 24.0234 35.8109C23.7031 35.5547 23.5109 35.1703 23.4469 34.7859L23.1266 31.2625C23.0625 30.8781 22.9984 30.5578 22.8703 30.1734C22.8062 30.0453 22.7422 29.9172 22.6781 29.7891L19.9875 25.625L18.8984 23.8953H15.2469C14.8625 23.8953 14.6062 23.575 14.6062 23.2547C14.6062 22.8703 14.9266 22.6141 15.2469 22.6141H18.6422V18.7703H17.8734C17.6172 18.7703 17.3609 18.5781 17.2969 18.3859C17.2328 18.3219 17.2328 18.1938 17.2328 18.1297C17.2328 17.7453 17.5531 17.4891 17.8734 17.4891H19.2828C19.3469 17.4891 19.475 17.4891 19.5391 17.5531L19.6031 17.6172C19.6672 17.6172 19.6672 17.6812 19.7312 17.6812L21.6531 19.5391C21.9734 19.8594 22.4219 20.0516 22.8703 20.0516H27.2266C27.4187 20.0516 27.5469 19.9875 27.675 19.8594C27.7391 19.8594 27.7391 19.7953 27.7391 19.7312C27.8031 19.6031 27.8672 19.475 27.8672 19.3469C27.8672 19.1547 27.8031 19.0266 27.675 18.8984C27.5469 18.7703 27.4187 18.7063 27.2266 18.7063H23.8312C22.9344 18.7063 22.0375 18.3219 21.3969 17.7453L21.3328 17.6812C21.2687 17.6172 21.2687 17.6172 21.2047 17.5531C21.1406 17.4891 21.0766 17.425 21.0125 17.3609L20.9484 17.2969C20.8844 17.1688 20.8203 17.1047 20.7562 16.9766L20.5641 16.5922L18.5781 12.8125C18.5781 12.8125 18.5781 12.7484 18.5141 12.7484C18.45 12.6844 18.3859 12.6203 18.3219 12.5563C18.2578 12.4922 18.2578 12.4922 18.1937 12.4281C18.1297 12.4281 18.1297 12.3641 18.0656 12.3641C18.0016 12.3 17.9375 12.3 17.8734 12.3C17.8094 12.3 17.8094 12.2359 17.7453 12.2359C17.6812 12.2359 17.6172 12.1719 17.5531 12.1719C17.4891 12.1719 17.425 12.1719 17.3609 12.1719H17.2969H15.5031C15.3109 12.1719 15.1828 12.2359 14.9906 12.2359C14.8625 12.3 14.7344 12.3641 14.6703 12.4281C14.6703 12.4281 14.6703 12.4281 14.6062 12.4922C14.4781 12.5562 14.4141 12.6203 14.35 12.7484C14.2859 12.8125 14.2219 12.9406 14.1578 13.0047C14.1578 13.0687 14.0937 13.0688 14.0937 13.1328C14.0297 13.1969 14.0297 13.325 14.0297 13.3891V13.4531L12.7484 25.1125L12.1719 30.5578C12.1719 30.8141 12.1078 31.0063 12.0437 31.2625C11.7875 32.2234 11.3391 33.1203 10.6344 33.8891L9.03281 35.4906C8.96875 35.5547 8.90469 35.6828 8.90469 35.8109C8.90469 35.9391 8.96875 36.1312 9.03281 36.2594L12.3641 39.5906C12.4922 39.7188 12.7484 39.7828 12.9406 39.7188C13.0047 39.7188 13.0687 39.6547 13.1328 39.5906C13.1969 39.5266 13.1969 39.4625 13.2609 39.3984C13.325 39.2703 13.325 39.1422 13.2609 39.0141C13.2609 38.95 13.1969 38.8859 13.1969 38.8219L12.5562 37.925L12.4281 37.7969C11.9797 37.1562 11.9797 36.3875 12.3641 35.6828C12.3641 35.6828 12.3641 35.6187 12.4281 35.6187L13.6453 33.8891C13.7094 33.825 13.7094 33.7609 13.7734 33.6969C13.8375 33.6328 13.8375 33.5687 13.9016 33.5047C13.9656 33.3766 14.0297 33.3125 14.0297 33.1844C14.0297 33.1203 14.0937 33.1203 14.0937 33.0562C14.2219 32.8 14.2859 32.4797 14.35 32.1594L15.375 26.4578C15.375 26.3297 15.5031 26.2016 15.6312 26.0734C15.6953 26.0094 15.8234 25.9453 15.8875 25.9453C15.9516 25.9453 15.9516 25.9453 16.0156 25.9453H16.0797C16.1437 25.9453 16.2719 26.0094 16.3359 26.0094C16.4 26.0734 16.5281 26.1375 16.5922 26.2016L17.0406 26.8422L20.6922 32.2234C21.0766 32.8 21.3328 33.4406 21.3969 34.1453C21.3969 34.2094 21.3969 34.2734 21.3969 34.3375L21.7812 37.925C21.7812 37.9891 21.7812 37.9891 21.8453 37.9891C21.8453 37.9891 21.8453 37.9891 21.8453 38.0531L21.9094 38.1172C21.9734 38.1172 22.0375 38.1813 22.1016 38.1172L23.6391 37.5406L27.2266 36.1953C27.2906 36.1953 27.2906 36.1313 27.3547 36.1313C27.3547 36.0672 27.4187 36.0672 27.4187 36.0031C27.4187 35.875 27.3547 35.875 27.3547 35.8109C27.2906 35.9391 27.2906 35.9391 27.2266 35.9391Z" fill="white"/>
<path d="M35.3625 12.1719H32.6078V15.8875C32.6078 16.1437 32.4797 16.4 32.2234 16.4641C32.1594 16.5281 32.0313 16.5281 31.9672 16.5281C31.8391 16.5281 31.6469 16.4641 31.5188 16.4L30.0453 15.1828L28.5719 16.4C28.3797 16.5922 28.1234 16.5922 27.8672 16.4641C27.6109 16.3359 27.4828 16.1437 27.4828 15.8875V12.1719H24.7281C24.0234 12.1719 23.4469 12.7484 23.4469 13.4531V17.2969C23.575 17.3609 23.7672 17.3609 23.8953 17.3609H27.2906C27.8031 17.3609 28.3156 17.5531 28.7 17.9375C29.0844 18.3219 29.2766 18.7703 29.2766 19.3469C29.2766 19.8594 29.0844 20.3719 28.7 20.7563C28.6359 20.8203 28.5078 20.8844 28.4438 20.9484C28.4438 20.9484 28.4438 20.9484 28.3797 21.0125C28.3156 21.0766 28.2516 21.0766 28.1875 21.1406C28.1234 21.1406 28.1234 21.2047 28.0594 21.2047C27.9953 21.2047 27.9953 21.2047 27.9313 21.2688C27.7391 21.3328 27.5469 21.3969 27.2906 21.3969H23.575V22.4219C23.7672 22.9344 24.2156 23.1906 24.7922 23.1906H35.4266C36.1313 23.1906 36.7078 22.6141 36.7078 21.9094V13.4531C36.6438 12.7484 36.0672 12.1719 35.3625 12.1719ZM38.3734 39.7188H2.62656C2.24219 39.7188 1.98594 40.0391 1.98594 40.3594C1.98594 40.6797 2.30625 41 2.62656 41H38.4375C38.8219 41 39.0781 40.6797 39.0781 40.3594C39.0781 40.0391 38.7578 39.7188 38.3734 39.7188Z" fill="white"/>
</svg>
