<svg width="37" height="37" viewBox="0 0 37 37" fill="none" xmlns="http://www.w3.org/2000/svg">
<path d="M29.6816 1.21992C25.8608 -0.522227 21.1336 -0.387857 17.0544 1.55521C13.3635 3.36475 10.2551 6.44635 7.92427 10.6008C6.3705 13.348 3.06797 21.9917 5.46396 29.9649C3.77992 31.6396 2.0963 33.3822 0.348355 35.0569C-0.104708 35.4584 -0.104708 36.1963 0.283632 36.6647C0.477802 36.8661 0.801419 37 1.06031 37C1.31962 37 1.57851 36.8661 1.8374 36.6647C3.58616 34.923 5.3341 33.1808 7.08246 31.4383C7.34135 31.3052 7.60024 31.103 7.66538 30.8355C9.80207 28.6911 11.9392 26.481 14.0754 24.4027C14.1406 24.3366 14.27 24.2014 14.3343 24.1353C15.9677 24.5373 17.6411 24.7396 19.3201 24.738C19.9034 24.738 20.5507 24.738 21.1332 24.671C21.7165 24.6049 22.1696 24.0683 22.1696 23.4647C22.1044 22.8619 21.5866 22.3927 21.0037 22.3927C19.4499 22.5266 17.831 22.4605 16.2765 22.1922C17.7659 20.7175 19.2554 19.1763 20.7448 17.7029H20.8091L28.1913 18.1717H28.256C28.8389 18.1717 29.2924 17.7029 29.3571 17.1001C29.4219 16.497 28.9041 15.9607 28.3216 15.8938L22.9471 15.5589C23.6594 14.8218 24.3718 14.0847 25.1485 13.4149C25.6019 12.9457 25.6019 12.2755 25.1485 11.8067C24.6954 11.3379 24.0478 11.3379 23.5943 11.8067L18.738 16.6309C18.2193 14.5595 17.83 12.4557 17.5726 10.3325C17.5082 9.72972 16.9249 9.26048 16.3424 9.32746C15.7595 9.39443 15.306 9.99761 15.3707 10.6004C15.6948 13.2136 16.213 15.8938 16.9245 18.4396C15.5002 19.9138 14.0107 21.3203 12.5864 22.795C10.838 24.6049 9.02498 26.4128 7.21149 28.2219C5.8523 22.0583 7.92386 15.0901 9.73734 11.8063C11.8093 8.1211 14.6584 5.30696 17.8962 3.76574C21.4576 2.02402 25.4725 1.88965 28.7099 3.43045C32.1419 5.03865 34.5383 8.52293 34.6673 12.1407C34.8615 15.9599 32.4012 19.5112 30.3288 21.7895C25.6663 27.0159 18.0908 31.7062 11.9388 30.3654C11.3562 30.2323 10.7729 30.6346 10.6435 31.2374C10.514 31.8401 10.9024 32.4429 11.4853 32.5768C12.3918 32.7782 13.2988 32.8451 14.27 32.8451C21.0041 32.8451 27.8685 27.954 32.012 23.3312C35.3793 19.579 37.0633 15.6255 36.9982 11.9402C36.7397 7.51834 33.8902 3.16298 29.6816 1.21992Z" fill="white"/>
</svg>
