<svg width="42" height="42" viewBox="0 0 42 42" fill="none" xmlns="http://www.w3.org/2000/svg">
<path d="M29.4197 14.3526V14.3132C28.4183 13.0578 27.147 12.0442 25.7002 11.3475C24.2534 10.6508 22.6682 10.2891 21.0623 10.2891C19.4565 10.2891 17.8713 10.6508 16.4245 11.3475C14.9776 12.0442 13.7063 13.0578 12.705 14.3132C12.705 14.3132 12.6722 14.3526 12.6591 14.3788C11.1555 16.2659 10.3368 18.6073 10.3368 21.0201C10.3368 23.4329 11.1555 25.7743 12.6591 27.6613C13.6588 28.9322 14.934 29.9595 16.3885 30.6658C17.843 31.3722 19.4388 31.7392 21.0558 31.7392C22.6727 31.7392 24.2686 31.3722 25.7231 30.6658C27.1775 29.9595 28.4527 28.9322 29.4525 27.6613C30.9583 25.7753 31.7784 23.4335 31.7784 21.0201C31.7784 18.6067 30.9583 16.2649 29.4525 14.3788L29.4197 14.3526ZM28.9144 15.4092C29.9758 16.897 30.5905 18.6569 30.6862 20.482H24.4191C24.4191 19.6551 24.3797 18.8217 24.3075 18.021C26.0371 17.5487 27.6209 16.6508 28.9144 15.4092ZM18.6637 20.482C18.6637 19.7076 18.7097 18.966 18.7622 18.2704C19.4939 18.4054 20.2363 18.4735 20.9803 18.4738C21.7532 18.4732 22.5243 18.4007 23.2837 18.2573C23.3428 18.9529 23.3756 19.701 23.3822 20.482H18.6637ZM23.3887 21.5188C23.3887 22.4113 23.3362 23.2513 23.2641 24.0388C21.783 23.7851 20.2695 23.7851 18.7884 24.0388C18.7162 23.2513 18.6703 22.4113 18.6637 21.5188H23.3887ZM28.2647 14.5888C27.1226 15.6975 25.7287 16.5127 24.2025 16.9645C23.9269 14.6807 23.415 12.6726 22.6734 11.4651C24.8364 11.8452 26.8071 12.9462 28.2647 14.5888ZM21.0459 11.3076C21.7875 11.3076 22.7784 13.5257 23.205 17.2138C22.4794 17.3626 21.7407 17.4373 21 17.437C20.2907 17.4371 19.5831 17.369 18.8869 17.2335C19.2872 13.5388 20.2847 11.3142 21 11.3142L21.0459 11.3076ZM19.3987 11.4585C18.6506 12.666 18.1387 14.6807 17.8697 16.9776C16.3285 16.5394 14.9224 15.7201 13.7812 14.5954C15.2379 12.947 17.212 11.8431 19.3791 11.4651L19.3987 11.4585ZM13.1512 15.396C14.4333 16.6488 16.0148 17.5525 17.745 18.021C17.6794 18.8151 17.6466 19.642 17.6334 20.4623H11.3597C11.4591 18.647 12.0713 16.8972 13.125 15.4157L13.1512 15.396ZM13.1512 26.5982C12.0827 25.1028 11.4613 23.3343 11.3597 21.4992H17.6334C17.6334 22.4245 17.6859 23.3432 17.7647 24.2292C16.0465 24.6353 14.4537 25.4553 13.125 26.6179L13.1512 26.5982ZM13.8075 27.4054C14.9815 26.3834 16.38 25.6526 17.8894 25.2726C18.0403 27.1036 18.5486 28.8872 19.3856 30.5226C17.22 30.1563 15.2435 29.0639 13.7812 27.4251L13.8075 27.4054ZM21.0262 30.6867C20.3044 30.6867 19.3397 28.5867 18.9 25.0692C19.5936 24.9487 20.2961 24.8873 21 24.8854C21.713 24.8848 22.4247 24.9485 23.1262 25.0757C22.7062 28.5867 21.7481 30.6867 21 30.6867H21.0262ZM22.6734 30.5357C23.5075 28.8991 24.0156 27.1161 24.1697 25.2857C25.6768 25.6719 27.0739 26.4019 28.2516 27.4185C26.798 29.0582 24.8317 30.157 22.6734 30.5357ZM28.9012 26.5982C27.571 25.4642 25.9857 24.6694 24.2812 24.2817C24.3666 23.3957 24.4059 22.477 24.4191 21.5517H30.6862C30.5762 23.3782 29.948 25.1356 28.875 26.6179L28.9012 26.5982Z" fill="white"/>
<path d="M28.6387 38.7189C28.4891 38.7183 28.3443 38.6665 28.2281 38.5722C28.112 38.4779 28.0315 38.3467 28.0001 38.2004C27.9687 38.0542 27.9882 37.9015 28.0555 37.7679C28.1227 37.6342 28.2335 37.5275 28.3697 37.4655C31.5936 36.0223 34.322 33.6631 36.2157 30.6815C38.1093 27.6998 39.0846 24.2272 39.0203 20.6957C38.956 17.1641 37.8548 13.7293 35.8538 10.8186C33.8528 7.90794 31.0402 5.64973 27.7659 4.32488C27.6411 4.27316 27.5353 4.18415 27.4629 4.07002C27.3906 3.9559 27.3552 3.82222 27.3617 3.68724C27.3681 3.55227 27.4161 3.42257 27.499 3.31588C27.5819 3.20919 27.6958 3.1307 27.825 3.09113L32.4647 1.73926C32.5512 1.69295 32.6471 1.66664 32.7451 1.66227C32.8432 1.6579 32.941 1.67559 33.0313 1.71402C33.1216 1.75246 33.2021 1.81066 33.267 1.88435C33.3318 1.95804 33.3793 2.04533 33.4059 2.13981C33.4326 2.23428 33.4377 2.33352 33.4209 2.43023C33.4041 2.52693 33.3658 2.61864 33.3088 2.69859C33.2519 2.77854 33.1777 2.84469 33.0918 2.89219C33.0059 2.93968 32.9105 2.9673 32.8125 2.97301L29.8856 3.8327C33.1094 5.50572 35.7965 8.0533 37.6388 11.1834C39.4811 14.3134 40.4042 17.8993 40.3021 21.5299C40.2001 25.1605 39.077 28.6889 37.0617 31.7105C35.0464 34.7321 32.2205 37.1247 28.9078 38.6139C28.827 38.6685 28.7351 38.7044 28.6387 38.7189Z" fill="white"/>
<path d="M29.3672 8.74166C29.2216 8.74788 29.0781 8.70547 28.9593 8.6211C28.8404 8.53674 28.7531 8.41523 28.7109 8.27572L27.3853 3.88541C27.34 3.72099 27.3605 3.54539 27.4425 3.39582C27.5244 3.24625 27.6614 3.13446 27.8243 3.08413C27.9873 3.03379 28.1634 3.04887 28.3154 3.12616C28.4675 3.20346 28.5834 3.3369 28.6388 3.49822L29.9906 7.87541C30.0176 7.96026 30.027 8.0497 30.0182 8.1383C30.0095 8.22689 29.9828 8.31279 29.9399 8.39075C29.8969 8.46871 29.8385 8.53712 29.7683 8.59181C29.698 8.64649 29.6174 8.68631 29.5313 8.70885C29.4783 8.72726 29.4231 8.73831 29.3672 8.74166ZM10.2703 40.2482C10.1841 40.2603 10.0964 40.2553 10.0122 40.2334C9.92795 40.2116 9.84884 40.1734 9.77937 40.121C9.63907 40.0151 9.54656 39.8579 9.52219 39.6838C9.49783 39.5098 9.5436 39.3332 9.64944 39.1929C9.75528 39.0526 9.91252 38.9601 10.0866 38.9357L13.2234 38.0629C5.82094 33.666 1.61438 27.0117 1.61438 19.5829C1.61438 11.9179 5.3025 6.2151 12.285 3.09135C12.4443 3.02086 12.625 3.01652 12.7874 3.07929C12.9499 3.14205 13.0808 3.26678 13.1513 3.42603C13.2217 3.58529 13.2261 3.76602 13.1633 3.92848C13.1006 4.09093 12.9758 4.2218 12.8166 4.29229C6.34594 7.21916 2.92688 12.4692 2.92688 19.5829C2.92688 26.9592 7.40907 33.5479 15.2119 37.6626C15.3294 37.724 15.4255 37.8196 15.4876 37.9368C15.5496 38.0539 15.5748 38.1871 15.5597 38.3188C15.5456 38.4474 15.4939 38.5689 15.411 38.6681C15.3281 38.7674 15.2177 38.8399 15.0938 38.8767L10.4541 40.2285C10.3942 40.2447 10.3322 40.2513 10.2703 40.2482Z" fill="white"/>
<path d="M14.91 38.8963C14.7724 38.8966 14.6382 38.8537 14.5264 38.7736C14.4145 38.6936 14.3306 38.5803 14.2866 38.45L12.8297 34.1253C12.8021 34.0434 12.7909 33.9569 12.7968 33.8708C12.8027 33.7846 12.8254 33.7004 12.8638 33.623C12.9022 33.5456 12.9555 33.4765 13.0206 33.4197C13.0856 33.3629 13.1613 33.3195 13.2431 33.2919C13.325 33.2643 13.4115 33.2531 13.4977 33.259C13.5839 33.2648 13.6681 33.2876 13.7455 33.326C13.8229 33.3644 13.892 33.4176 13.9488 33.4827C14.0056 33.5478 14.049 33.6234 14.0766 33.7053L15.5335 38.0628C15.5785 38.2272 15.5578 38.4027 15.4758 38.5522C15.3937 38.7016 15.2567 38.8132 15.0938 38.8634C15.0346 38.8837 14.9726 38.8948 14.91 38.8963ZM23.0147 2.09375H18.9066C18.6942 2.09375 18.4906 2.1781 18.3405 2.32825C18.1903 2.47839 18.106 2.68204 18.106 2.89437V7.58656C18.1073 7.65941 18.1355 7.72919 18.1852 7.78249C18.2348 7.83579 18.3025 7.86885 18.375 7.87531H23.4938C23.5721 7.87531 23.6472 7.8442 23.7026 7.78882C23.758 7.73344 23.7891 7.65832 23.7891 7.58V2.89437C23.7909 2.68601 23.7107 2.48529 23.5658 2.33552C23.4209 2.18574 23.223 2.09891 23.0147 2.09375ZM21.5381 2.68438V3.59656L21.1706 3.33406C21.1201 3.30048 21.0607 3.28257 21 3.28257C20.9393 3.28257 20.88 3.30048 20.8294 3.33406L20.4488 3.60312V2.68438H21.5381ZM22.9097 7.27813H19.0313C18.946 7.27813 18.8642 7.24425 18.8039 7.18394C18.7436 7.12364 18.7097 7.04185 18.7097 6.95656V2.89437C18.7097 2.83868 18.7318 2.78527 18.7712 2.74588C18.8106 2.7065 18.864 2.68438 18.9197 2.68438H19.8778V4.1675C19.8776 4.22147 19.8921 4.27447 19.9199 4.32075C19.9477 4.36703 19.9876 4.40481 20.0353 4.43C20.0786 4.43963 20.1234 4.43963 20.1666 4.43C20.2263 4.43992 20.2877 4.4331 20.3438 4.41031L21 3.93781L21.6563 4.40375C21.7019 4.4309 21.7541 4.44524 21.8072 4.44524C21.8603 4.44524 21.9125 4.4309 21.9581 4.40375C22.0066 4.37888 22.0475 4.34135 22.0764 4.29513C22.1053 4.24891 22.1211 4.19574 22.1222 4.14125V2.68438H23.0081C23.0363 2.6835 23.0643 2.68828 23.0905 2.69844C23.1168 2.7086 23.1407 2.72392 23.1609 2.74351C23.1811 2.7631 23.1972 2.78655 23.2081 2.81247C23.2191 2.83838 23.2247 2.86624 23.2247 2.89437V6.96969C23.2247 7.05385 23.1917 7.13466 23.1329 7.19478C23.074 7.2549 22.9938 7.28953 22.9097 7.29125V7.27813ZM23.2706 35.0769H19.4578C19.3602 35.076 19.2634 35.0946 19.173 35.1315C19.0826 35.1685 19.0006 35.2231 18.9315 35.2921C18.8625 35.3612 18.8079 35.4433 18.7709 35.5336C18.734 35.624 18.7154 35.7208 18.7163 35.8184V40.1694C18.7154 40.2053 18.7217 40.241 18.7348 40.2744C18.748 40.3078 18.7676 40.3382 18.7927 40.3639C18.8178 40.3896 18.8477 40.41 18.8808 40.4239C18.9139 40.4378 18.9494 40.445 18.9853 40.445H23.7366C23.8097 40.445 23.8798 40.416 23.9315 40.3643C23.9832 40.3126 24.0122 40.2425 24.0122 40.1694V35.8184C24.0122 35.6218 23.9341 35.4331 23.795 35.2941C23.6559 35.155 23.4673 35.0769 23.2706 35.0769ZM21.8925 35.6216V36.4681L21.5578 36.2253C21.5116 36.1931 21.4566 36.1759 21.4003 36.1759C21.344 36.1759 21.289 36.1931 21.2428 36.2253L20.8885 36.4747V35.6216H21.8925ZM23.1656 39.8938H19.5563C19.5175 39.8938 19.4791 39.8861 19.4433 39.8713C19.4074 39.8564 19.3749 39.8347 19.3475 39.8073C19.32 39.7798 19.2983 39.7473 19.2834 39.7115C19.2686 39.6756 19.261 39.6372 19.261 39.5984V35.8184C19.26 35.7923 19.2645 35.7663 19.2741 35.742C19.2836 35.7177 19.2981 35.6957 19.3166 35.6772C19.335 35.6587 19.3571 35.6443 19.3814 35.6347C19.4057 35.6251 19.4317 35.6206 19.4578 35.6216H20.3438V36.9997C20.3437 37.0494 20.3571 37.0983 20.3825 37.141C20.4079 37.1838 20.4444 37.2188 20.4881 37.2425C20.5292 37.2518 20.5718 37.2518 20.6128 37.2425C20.6689 37.2444 20.7241 37.2283 20.7703 37.1966L21.4266 36.7569L22.0435 37.1966C22.0859 37.2227 22.1347 37.2365 22.1846 37.2365C22.2344 37.2365 22.2832 37.2227 22.3256 37.1966C22.3694 37.1729 22.4059 37.1378 22.4313 37.0951C22.4567 37.0523 22.4701 37.0035 22.47 36.9538V35.5756H23.3035C23.329 35.5756 23.3543 35.5807 23.3778 35.5907C23.4014 35.6007 23.4226 35.6153 23.4404 35.6337C23.4582 35.652 23.472 35.6738 23.4812 35.6977C23.4904 35.7215 23.4946 35.747 23.4938 35.7725V39.5525C23.5013 39.5979 23.4981 39.6443 23.4845 39.6883C23.4708 39.7322 23.4472 39.7723 23.4153 39.8054C23.3834 39.8386 23.3443 39.8638 23.3009 39.8791C23.2576 39.8945 23.2113 39.8995 23.1656 39.8938Z" fill="white"/>
</svg>
