<svg width="60" height="57" viewBox="0 0 60 57" fill="none" xmlns="http://www.w3.org/2000/svg">
<path d="M58.9098 15.3797C57.8931 14.5016 55.8089 13.0156 53.4197 13.1507L53.191 13.1777L54.4873 11.6783C54.6692 11.4669 54.7647 11.1873 54.7528 10.9011C54.7409 10.6148 54.6225 10.3453 54.4237 10.1518C54.2234 9.96171 53.961 9.86238 53.6927 9.875C53.4245 9.88762 53.1714 10.0112 52.9876 10.2193L47.9551 16.0416C47.7635 15.5032 47.4593 15.0182 47.0655 14.6232C46.7199 14.2772 46.3121 14.0091 45.8666 13.835C45.4211 13.6609 44.947 13.5844 44.4729 13.61H44.4221V13.529C44.385 12.72 44.1062 11.9446 43.6263 11.3154C43.1464 10.6862 42.4903 10.2361 41.7533 10.0302L43.9773 4.45113C44.2864 3.66546 44.291 2.78178 43.99 1.99255C43.8459 1.60114 43.6285 1.24489 43.3511 0.945355C43.0737 0.645824 42.742 0.409241 42.376 0.249926C41.6369 -0.0770546 40.8067 -0.0834231 40.0633 0.232185C39.3198 0.547793 38.7221 1.16029 38.3983 1.93851L34.268 12.3402C33.8867 12.0565 33.4801 11.7864 33.0734 11.5432C32.431 11.1592 31.862 10.6506 31.3959 10.0437C30.3647 8.61008 28.9414 7.55085 27.3213 7.01147C25.7011 6.47209 23.9637 6.47902 22.3474 7.03129L21.3561 4.68078C21.2449 4.41924 21.0405 4.21538 20.7879 4.11404C20.5352 4.01271 20.2551 4.0222 20.009 4.14043C19.763 4.25866 19.5712 4.47594 19.4759 4.74448C19.3805 5.01302 19.3895 5.31081 19.5007 5.57235L20.5047 7.92286C19.048 8.85027 17.8956 10.2323 17.2043 11.8808C16.513 13.5293 16.3164 15.3643 16.6413 17.1358C16.7836 17.8716 16.7792 18.6309 16.6286 19.3647C16.5443 19.8608 16.4849 20.3614 16.4506 20.8642C15.4594 18.9595 14.8875 16.7711 14.8367 14.2314C14.8309 13.7577 14.7357 13.2899 14.5566 12.856C14.3776 12.4221 14.1185 12.0308 13.7946 11.7053C13.4934 11.3981 13.1397 11.155 12.7525 10.9893L13.3625 9.04409C13.4042 8.90926 13.4205 8.76703 13.4105 8.62549C13.4005 8.48396 13.3644 8.34591 13.3042 8.21921C13.244 8.09252 13.161 7.97967 13.0598 7.8871C12.9585 7.79453 12.8412 7.72406 12.7143 7.67971C12.5875 7.63536 12.4537 7.618 12.3205 7.62862C12.1874 7.63924 12.0575 7.67763 11.9383 7.74161C11.6976 7.87081 11.515 8.09636 11.4308 8.36865L10.681 10.7732C10.097 10.7462 9.51638 10.88 8.99537 11.1616C8.47435 11.4433 8.03062 11.8632 7.70717 12.3807C7.53579 12.6705 7.4032 12.9842 7.31321 13.3128C6.02965 18.1084 6.19486 22.6473 7.79613 26.835H3.62773C2.82555 26.8261 2.05288 27.1562 1.47969 27.7528C0.906507 28.3494 0.57976 29.1636 0.571334 30.0163C0.562908 30.869 0.873492 31.6904 1.43476 32.2996C1.99603 32.9089 2.76201 33.2562 3.56419 33.2652L5.12734 49.5296C5.31983 51.579 6.22273 53.479 7.66033 54.8597C9.09793 56.2405 10.9674 57.0034 12.905 57H46.6334C48.5731 57.0068 50.4457 56.2454 51.886 54.8643C53.3263 53.4832 54.231 51.5813 54.4237 49.5296L55.9742 33.2517C56.7419 33.1832 57.4562 32.8058 57.9711 32.1966C58.4861 31.5874 58.7629 30.7922 58.7451 29.9734C58.7272 29.1546 58.4161 28.374 57.8752 27.7907C57.3342 27.2075 56.6043 26.8657 55.8344 26.835H55.3133C55.7383 26.0777 55.9058 25.1882 55.7879 24.3153C55.6699 23.4424 55.2736 22.639 54.6652 22.0395C54.3182 21.6966 53.9098 21.4314 53.4645 21.2596C53.0191 21.0879 52.5457 21.0131 52.0726 21.0398H52.0218V20.9723C52.0153 20.8813 52.0026 20.791 51.9837 20.7021C52.4743 20.8318 52.9777 20.8998 53.4833 20.9047H53.7374C56.1267 20.7967 58.0711 19.1486 59.0242 18.1895C59.2063 18.0047 59.3492 17.7808 59.4433 17.5325C59.5373 17.2843 59.5804 17.0176 59.5695 16.7502C59.5587 16.4829 59.4942 16.2211 59.3805 15.9824C59.2667 15.7437 59.1062 15.5336 58.9098 15.3662V15.3797ZM44.994 22.2556C45.0846 22.53 45.1042 22.8253 45.0505 23.1105C44.9968 23.3958 44.872 23.6604 44.689 23.8766C44.5136 24.0805 44.2932 24.2347 44.0476 24.3252C43.8021 24.4158 43.5392 24.4398 43.2827 24.3951C43.0262 24.3505 42.7843 24.2385 42.5787 24.0695C42.3732 23.9004 42.2105 23.6795 42.1055 23.4268C42.0005 23.1741 41.9564 22.8976 41.9773 22.6222C41.9981 22.3468 42.0832 22.0813 42.2249 21.8497C42.3665 21.6181 42.5603 21.4277 42.7886 21.2957C43.0169 21.1637 43.2726 21.0944 43.5325 21.0938C43.6265 21.1065 43.7199 21.1245 43.8121 21.1479L44.0917 21.2019C44.2724 21.2806 44.4398 21.3901 44.5873 21.5261C44.7276 21.6707 44.8437 21.8398 44.9304 22.0259C44.9431 22.107 44.9813 22.1745 44.994 22.2556ZM47.8788 24.9168C48.0689 24.9897 48.2422 25.1049 48.3872 25.2545C48.5255 25.3855 48.6416 25.5409 48.7303 25.7138C48.7584 25.8283 48.7923 25.941 48.832 26.0515C48.8997 26.3072 48.9041 26.5771 48.8447 26.835H45.8073C45.7512 26.571 45.7565 26.2964 45.823 26.035C45.8894 25.7737 46.0149 25.5336 46.1886 25.3356C46.3258 25.1748 46.4923 25.0452 46.678 24.9546C46.8636 24.8641 47.0646 24.8145 47.2688 24.8087C47.4156 24.8149 47.561 24.8422 47.7009 24.8898L47.8788 24.9168ZM40.241 17.487C40.4462 17.551 40.6337 17.6668 40.7875 17.8247C40.933 17.9592 41.0499 18.1249 41.1306 18.3111C41.1433 18.3786 41.1687 18.4326 41.1814 18.5002C41.2387 18.6518 41.2772 18.8108 41.2958 18.973C41.3109 19.4144 41.1653 19.8451 40.8891 20.1753C40.7486 20.3353 40.5797 20.4642 40.3921 20.5546C40.2046 20.645 40.002 20.6951 39.7962 20.7021C39.5918 20.7158 39.387 20.6844 39.1946 20.6101C39.0021 20.5357 38.8262 20.4198 38.6778 20.2698C38.5053 20.0991 38.372 19.8884 38.2883 19.6542C38.2046 19.42 38.1726 19.1684 38.1949 18.9189L38.6016 17.9058C38.8793 17.5891 39.2623 17.4 39.6691 17.379H39.7327C39.8533 17.3871 39.9727 17.4098 40.0885 17.4465L40.241 17.487ZM36.9876 23.8091C37.1355 23.6409 37.3147 23.5072 37.5138 23.4165C37.7129 23.3258 37.9275 23.2801 38.1441 23.2823C38.5348 23.2774 38.9124 23.4321 39.1989 23.7145C39.5031 24.0175 39.6853 24.4338 39.7072 24.8763C39.7155 25.0941 39.6826 25.3116 39.6106 25.5157C39.5385 25.7199 39.4288 25.9066 39.2879 26.065C39.0084 26.3888 38.6204 26.5828 38.2076 26.6054C38.0005 26.6168 37.7934 26.5831 37.5989 26.5064C37.4044 26.4298 37.2267 26.3118 37.0766 26.1596C36.9253 26.0116 36.803 25.8334 36.7167 25.6351C36.6304 25.4368 36.5817 25.2223 36.5734 25.004C36.5651 24.7856 36.5975 24.5677 36.6685 24.3627C36.7396 24.1576 36.848 23.9695 36.9876 23.8091ZM29.4006 29.0099H29.6421C30.1041 29.0089 30.5599 29.1232 30.9727 29.3438C31.3855 29.5644 31.7438 29.885 32.0186 30.2798C32.4195 30.8278 32.6344 31.5038 32.6286 32.198C32.6286 33.0435 32.3126 33.8544 31.7501 34.4523C31.1877 35.0502 30.4248 35.386 29.6294 35.386C28.8339 35.386 28.0711 35.0502 27.5086 34.4523C26.9462 33.8544 26.6302 33.0435 26.6302 32.198C26.6302 30.5634 27.7612 29.2126 29.4006 29.0099ZM44.6254 15.7714C44.9289 15.7708 45.2259 15.8641 45.4804 16.04C45.7348 16.2158 45.9355 16.4665 46.0582 16.7616C46.1808 17.0566 46.22 17.3833 46.1709 17.7016C46.1218 18.0199 45.9867 18.3162 45.7819 18.5542C45.6443 18.7191 45.4763 18.8522 45.2883 18.9451C45.1003 19.0381 44.8963 19.0889 44.689 19.0946C44.5291 19.0951 44.3703 19.0677 44.2188 19.0135L44.0663 18.973C43.8837 18.9044 43.7154 18.7989 43.5706 18.6623C43.4314 18.5167 43.3155 18.3478 43.2275 18.1625C43.2103 18.0891 43.1891 18.017 43.164 17.9463C43.1152 17.802 43.0811 17.6526 43.0623 17.5005C43.0451 17.0628 43.1913 16.6355 43.469 16.3118H43.4817C43.625 16.1401 43.8012 16.0031 43.9985 15.9099C44.1958 15.8167 44.4095 15.7695 44.6254 15.7714ZM42.3887 13.6506C42.4001 13.8676 42.3699 14.0849 42.3 14.2892C42.2301 14.4936 42.122 14.6807 41.9821 14.8393C41.809 15.032 41.5958 15.1789 41.3596 15.268C41.1235 15.3572 40.8709 15.3862 40.6222 15.3526C40.4943 15.3069 40.3623 15.2752 40.2283 15.2581C40.0709 15.1947 39.9248 15.1033 39.7962 14.9879C39.6766 14.8607 39.5701 14.7203 39.4785 14.5691C39.3544 14.3448 39.282 14.0924 39.2673 13.8326C39.2527 13.5728 39.2961 13.313 39.394 13.0745C39.4919 12.836 39.6416 12.6255 39.8308 12.4603C40.02 12.2951 40.2433 12.1799 40.4825 12.1241C40.5991 12.0938 40.7183 12.0757 40.8383 12.07C41.2266 12.0789 41.5997 12.2319 41.8931 12.5023C42.0444 12.6482 42.1663 12.8252 42.2515 13.0225C42.3367 13.2199 42.3834 13.4335 42.3887 13.6506ZM40.2664 2.80307C40.3727 2.54318 40.5708 2.33807 40.8181 2.23195C41.0653 2.12583 41.3418 2.12718 41.5881 2.2357C41.8263 2.34849 42.0138 2.55535 42.1111 2.81251C42.2083 3.06967 42.2076 3.35696 42.1091 3.61359L39.4531 10.2464C38.9757 10.4463 38.5428 10.7499 38.1822 11.1379C37.7284 11.6619 37.4241 12.3122 37.3049 13.013C37.1856 13.7138 37.2563 14.4362 37.5087 15.096L36.8224 16.8251C36.4975 17.2971 36.28 17.8427 36.187 18.4191L32.8319 26.835H30.6969L40.2664 2.80307ZM18.6365 16.7305C18.3687 15.2531 18.5774 13.7229 19.229 12.3871C19.8806 11.0514 20.9369 9.98833 22.2272 9.36973C23.5175 8.75113 24.9664 8.61317 26.3396 8.97815C27.7128 9.34314 28.93 10.1897 29.7946 11.3811C30.4271 12.2142 31.2035 12.9111 32.0821 13.4344C32.5604 13.7223 33.0153 14.0522 33.4419 14.4205L28.4983 26.835H19.6024C18.4713 24.6872 18.09 22.2421 18.6111 19.851C18.8231 18.824 18.8318 17.7613 18.6365 16.7305ZM16.7302 24.9438C16.88 25.5923 17.0842 26.2253 17.3402 26.835H15.4212C13.6675 24.2819 12.9431 21.364 13.2608 18.1354C13.8065 20.7008 15.007 23.0565 16.7302 24.9438ZM9.27032 13.8937C9.3599 13.5497 9.57158 13.256 9.86078 13.0746C10.15 12.8932 10.4941 12.8382 10.8208 12.9211H10.9097C11.2465 13.0308 11.5301 13.2752 11.7008 13.6028C11.8715 13.9303 11.9159 14.3155 11.8247 14.6772C10.376 20.0131 11.4562 24.0252 12.9939 26.8215H10.0201C8.29176 22.877 8.02488 18.5272 9.27032 13.8937ZM2.63647 30.0501C2.63647 29.9117 2.66211 29.7747 2.71192 29.6469C2.76174 29.519 2.83476 29.4029 2.9268 29.305C3.01885 29.2072 3.12813 29.1296 3.24839 29.0766C3.36866 29.0237 3.49756 28.9964 3.62773 28.9964H25.6135C25.1666 29.6223 24.8582 30.3472 24.7112 31.1173H3.62773C3.49648 31.1173 3.36654 31.0896 3.24544 31.0358C3.12433 30.982 3.01449 30.9032 2.92227 30.8039C2.83006 30.7046 2.75731 30.5869 2.70825 30.4575C2.65918 30.3281 2.63479 30.1896 2.63647 30.0501ZM52.4031 49.3135C52.2607 50.8325 51.5906 52.2405 50.5236 53.2623C49.4566 54.284 48.0695 54.8461 46.6334 54.8386H12.905C11.4719 54.8397 10.0894 54.2751 9.02574 53.2542C7.96205 52.2334 7.29288 50.829 7.148 49.3135L5.61026 33.2787H24.6985C24.7647 33.5978 24.8583 33.9098 24.9781 34.2108L25.1051 34.4945C25.1943 34.6952 25.2962 34.8893 25.4101 35.0753C25.4707 35.1798 25.5386 35.2792 25.6135 35.3725C25.7257 35.5349 25.8488 35.6884 25.982 35.8318L26.2362 36.102L26.6683 36.4802C26.7605 36.5599 26.8582 36.6322 26.9606 36.6964L27.4689 36.9936L27.7866 37.1422C27.9813 37.2238 28.1808 37.2915 28.3839 37.3448C28.4797 37.3781 28.5773 37.4052 28.6762 37.4259C28.994 37.4959 29.3176 37.5321 29.6421 37.5339C29.9624 37.5328 30.2818 37.4966 30.5952 37.4259C30.6941 37.4052 30.7917 37.3781 30.8875 37.3448C31.0907 37.2915 31.2902 37.2238 31.4848 37.1422C31.5965 37.102 31.7032 37.0475 31.8025 36.9801C31.9783 36.899 32.1483 36.8042 32.3109 36.6964L32.6032 36.4802L33.0353 36.102L33.2894 35.8318C33.4165 35.6832 33.5309 35.5346 33.6453 35.3725C33.7201 35.2792 33.7881 35.1798 33.8486 35.0753C33.9626 34.8893 34.0645 34.6952 34.1536 34.4945L34.2807 34.2108C34.4005 33.9098 34.4941 33.5978 34.5603 33.2787H53.9281L52.4031 49.3135ZM56.8256 30.0501C56.8273 30.1896 56.8029 30.3281 56.7538 30.4575C56.7048 30.5869 56.632 30.7046 56.5398 30.8039C56.4476 30.9032 56.3378 30.982 56.2167 31.0358C56.0956 31.0896 55.9656 31.1173 55.8344 31.1173H34.5476C34.4374 30.5572 34.2443 30.0192 33.9757 29.5233L34.1917 28.9964H55.8344C55.9645 28.9964 56.0934 29.0237 56.2137 29.0766C56.334 29.1296 56.4432 29.2072 56.5353 29.305C56.6273 29.4029 56.7004 29.519 56.7502 29.6469C56.8 29.7747 56.8256 29.9117 56.8256 30.0501ZM52.1616 23.2012H52.2251C52.6193 23.1983 53.0002 23.3525 53.2927 23.6335C53.5951 23.9342 53.774 24.3495 53.7906 24.7893C53.8073 25.2292 53.6603 25.6584 53.3816 25.984C53.2423 26.1445 53.0745 26.2743 52.888 26.366C52.7014 26.4576 52.4997 26.5093 52.2944 26.5181C51.8797 26.5358 51.4754 26.3777 51.1703 26.0786C50.8653 25.7794 50.6846 25.3637 50.6679 24.9229C50.6512 24.4821 50.7999 24.0523 51.0814 23.728C51.2186 23.5672 51.3851 23.4376 51.5708 23.3471C51.7564 23.2565 51.9574 23.2069 52.1616 23.2012ZM48.0694 22.7419L47.8661 22.6879C47.685 22.6162 47.5172 22.511 47.3705 22.3772C47.2312 22.2316 47.1153 22.0627 47.0273 21.8773C47.0146 21.8098 46.9892 21.7558 46.9765 21.6882C46.9192 21.5366 46.8807 21.3776 46.8621 21.2154C46.8532 20.9975 46.8857 20.7798 46.9578 20.5756C47.0299 20.3713 47.14 20.1846 47.2815 20.0267C47.4162 19.8615 47.5818 19.7281 47.7679 19.635C47.9539 19.542 48.1562 19.4913 48.3617 19.4863H48.4253C48.831 19.479 49.2229 19.6425 49.5157 19.9411C49.8085 20.2397 49.9784 20.6492 49.9884 21.0803C49.9998 21.2974 49.9696 21.5147 49.8997 21.719C49.8298 21.9234 49.7217 22.1105 49.5818 22.2691C49.3925 22.4844 49.1523 22.6419 48.8864 22.725C48.6204 22.8082 48.3383 22.814 48.0694 22.7419ZM53.6485 18.7568C52.0726 18.7974 50.6239 17.8923 49.7724 17.2033C50.5603 16.4469 51.9455 15.3797 53.5087 15.3121C55.0718 15.2446 56.5333 16.1767 57.3975 16.8656C56.5969 17.6221 55.2116 18.6893 53.6485 18.7568ZM8.63489 37.3853C8.63319 37.2429 8.65832 37.1016 8.70881 36.9696C8.75929 36.8377 8.83412 36.7178 8.92887 36.6171C9.02362 36.5164 9.13638 36.4369 9.2605 36.3832C9.38462 36.3295 9.51759 36.3028 9.65158 36.3046H20.7715C21.0412 36.3046 21.2998 36.4185 21.4904 36.6212C21.6811 36.8238 21.7882 37.0987 21.7882 37.3853C21.7882 37.6719 21.6811 37.9468 21.4904 38.1495C21.2998 38.3522 21.0412 38.466 20.7715 38.466H9.65158C9.38193 38.466 9.12334 38.3522 8.93267 38.1495C8.74201 37.9468 8.63489 37.6719 8.63489 37.3853ZM37.7501 37.3853C37.7484 37.2429 37.7735 37.1016 37.824 36.9696C37.8745 36.8377 37.9494 36.7178 38.0441 36.6171C38.1389 36.5164 38.2516 36.4369 38.3757 36.3832C38.4999 36.3295 38.6328 36.3028 38.7668 36.3046H49.8868C50.1564 36.3046 50.415 36.4185 50.6057 36.6212C50.7963 36.8238 50.9034 37.0987 50.9034 37.3853C50.9034 37.6719 50.7963 37.9468 50.6057 38.1495C50.415 38.3522 50.1564 38.466 49.8868 38.466H38.7668C38.4972 38.466 38.2386 38.3522 38.0479 38.1495C37.8572 37.9468 37.7501 37.6719 37.7501 37.3853ZM9.66428 43.2751C9.39464 43.2751 9.13605 43.1613 8.94538 42.9586C8.75472 42.7559 8.6476 42.481 8.6476 42.1944C8.6476 41.9078 8.75472 41.6329 8.94538 41.4303C9.13605 41.2276 9.39464 41.1137 9.66428 41.1137H21.712C21.9816 41.1137 22.2402 41.2276 22.4309 41.4303C22.6215 41.6329 22.7286 41.9078 22.7286 42.1944C22.7286 42.481 22.6215 42.7559 22.4309 42.9586C22.2402 43.1613 21.9816 43.2751 21.712 43.2751H9.66428ZM36.8224 42.1944C36.8224 41.9078 36.9295 41.6329 37.1202 41.4303C37.3108 41.2276 37.5694 41.1137 37.8391 41.1137H49.8868C50.1564 41.1137 50.415 41.2276 50.6057 41.4303C50.7963 41.6329 50.9034 41.9078 50.9034 42.1944C50.9034 42.481 50.7963 42.7559 50.6057 42.9586C50.415 43.1613 50.1564 43.2751 49.8868 43.2751H37.8391C37.5694 43.2751 37.3108 43.1613 37.1202 42.9586C36.9295 42.7559 36.8224 42.481 36.8224 42.1944ZM10.6683 47.4358C10.3986 47.4358 10.14 47.3219 9.94935 47.1193C9.75869 46.9166 9.65158 46.6417 9.65158 46.3551C9.65158 46.0685 9.75869 45.7936 9.94935 45.5909C10.14 45.3883 10.3986 45.2744 10.6683 45.2744H22.7159C22.9856 45.2744 23.2442 45.3883 23.4348 45.5909C23.6255 45.7936 23.7326 46.0685 23.7326 46.3551C23.7326 46.6417 23.6255 46.9166 23.4348 47.1193C23.2442 47.3219 22.9856 47.4358 22.7159 47.4358H10.6683ZM36.187 46.3551C36.187 46.0685 36.2941 45.7936 36.4848 45.5909C36.6754 45.3883 36.934 45.2744 37.2037 45.2744H49.2513C49.521 45.2744 49.7796 45.3883 49.9702 45.5909C50.1609 45.7936 50.268 46.0685 50.268 46.3551C50.268 46.6417 50.1609 46.9166 49.9702 47.1193C49.7796 47.3219 49.521 47.4358 49.2513 47.4358H37.2037C36.934 47.4358 36.6754 47.3219 36.4848 47.1193C36.2941 46.9166 36.187 46.6417 36.187 46.3551ZM24.368 50.5158C24.368 50.8024 24.2609 51.0773 24.0703 51.2799C23.8796 51.4826 23.621 51.5965 23.3514 51.5965H11.3037C11.034 51.5965 10.7754 51.4826 10.5848 51.2799C10.3941 51.0773 10.287 50.8024 10.287 50.5158C10.287 50.2292 10.3941 49.9543 10.5848 49.7516C10.7754 49.5489 11.034 49.4351 11.3037 49.4351H23.3514C23.4854 49.4333 23.6183 49.46 23.7424 49.5137C23.8666 49.5673 23.9793 49.6469 24.0741 49.7476C24.1688 49.8483 24.2436 49.9681 24.2941 50.1001C24.3446 50.232 24.3698 50.3734 24.368 50.5158ZM34.7255 50.5158C34.7255 50.2292 34.8326 49.9543 35.0233 49.7516C35.2139 49.5489 35.4725 49.4351 35.7422 49.4351H47.7899C48.0595 49.4351 48.3181 49.5489 48.5088 49.7516C48.6994 49.9543 48.8065 50.2292 48.8065 50.5158C48.8065 50.8024 48.6994 51.0773 48.5088 51.2799C48.3181 51.4826 48.0595 51.5965 47.7899 51.5965H35.7422C35.4725 51.5965 35.2139 51.4826 35.0233 51.2799C34.8326 51.0773 34.7255 50.8024 34.7255 50.5158Z" fill="url(#paint0_linear_10_81)"/>
<defs>
<linearGradient id="paint0_linear_10_81" x1="30.0712" y1="0" x2="29.6246" y2="42.3303" gradientUnits="userSpaceOnUse">
<stop stop-color="#DBD460"/>
<stop offset="1" stop-color="#78A56F"/>
</linearGradient>
</defs>
</svg>
